<?xml version="1.0" standalone="no"?>
<!DOCTYPE svg PUBLIC "-//W3C//DTD SVG 20010904//EN"
 "http://www.w3.org/TR/2001/REC-SVG-20010904/DTD/svg10.dtd">
<svg version="1.0" xmlns="http://www.w3.org/2000/svg"
 width="512.000000pt" height="512.000000pt" viewBox="0 0 512.000000 512.000000"
 preserveAspectRatio="xMidYMid meet">

<g transform="translate(0.000000,512.000000) scale(0.100000,-0.100000)"
fill="currentColor" stroke="currentColor">
<path d="M2547 5018 c-56 -61 -156 -206 -197 -287 -90 -180 -124 -345 -124
-601 1 -178 2 -190 34 -305 48 -178 49 -161 -14 -239 -135 -164 -209 -349
-210 -529 -1 -93 5 -107 51 -107 31 0 43 27 59 139 26 173 65 274 154 399 l52
74 57 -89 c32 -48 97 -135 146 -193 48 -58 100 -132 116 -165 36 -75 53 -193
39 -266 -6 -29 -10 -53 -10 -54 0 -1 -183 -5 -407 -8 -757 -10 -1252 -84
-1364 -203 -22 -23 -24 -33 -22 -116 5 -185 55 -447 123 -643 48 -137 139
-316 228 -452 l81 -122 -42 -5 c-23 -3 -130 -17 -237 -31 -463 -60 -821 -163
-942 -270 -37 -32 -68 -85 -68 -116 0 -91 85 -223 203 -312 609 -464 2552
-617 3822 -301 491 122 799 293 895 496 38 79 38 112 0 171 -53 84 -162 146
-372 211 -65 20 -118 40 -118 45 0 4 24 15 53 24 272 86 537 458 537 754 0
153 -56 294 -155 396 -112 114 -209 161 -360 171 -144 10 -234 -5 -334 -56
-46 -23 -87 -44 -90 -46 -3 -1 -5 35 -3 81 3 77 1 86 -21 113 -73 86 -280 138
-737 184 -118 12 -216 23 -217 24 -2 1 4 36 13 77 29 136 6 316 -58 443 -65
129 -135 199 -177 177 -42 -23 -37 -48 26 -139 105 -149 138 -319 97 -492
l-17 -68 -101 5 c-56 2 -106 6 -113 8 -8 3 -13 50 -15 152 l-3 148 -38 75
c-21 41 -62 104 -92 140 -101 121 -185 235 -206 278 l-21 43 22 24 c32 34 192
110 270 129 36 8 103 20 149 25 94 12 111 21 111 60 0 41 -18 51 -87 51 -131
0 -308 -53 -436 -130 -36 -22 -70 -40 -76 -40 -14 0 -49 112 -62 200 -18 119
-7 397 20 495 47 168 120 306 255 478 36 47 66 92 66 100 0 20 -38 47 -64 47
-11 0 -42 -24 -69 -52z m88 -2340 c4 -4 -7 -26 -24 -50 -46 -62 -39 -118 15
-118 25 0 106 83 131 134 l17 36 93 0 c91 0 107 -6 79 -29 -8 -7 -22 -28 -31
-47 -15 -32 -15 -37 -1 -60 31 -46 82 -20 146 76 l35 52 124 -6 c226 -12 660
-77 754 -115 56 -22 33 -39 -98 -71 -653 -159 -2366 -141 -2812 30 l-48 18 40
17 c139 60 543 115 980 134 221 10 590 9 600 -1z m1370 -404 c-37 -234 -101
-446 -189 -624 -82 -166 -161 -279 -353 -500 -77 -90 -117 -160 -134 -239
l-11 -51 -109 -34 c-475 -151 -908 -154 -1351 -10 l-137 45 -10 37 c-6 20 -13
49 -17 65 -10 44 -73 133 -188 267 -218 254 -330 460 -421 775 -30 102 -65
297 -65 357 0 37 2 40 23 34 220 -63 543 -108 917 -126 241 -12 831 -12 1085
0 377 18 787 72 930 123 51 18 51 17 30 -119z m661 86 c119 -41 223 -139 264
-249 85 -222 10 -482 -199 -692 -68 -68 -103 -94 -171 -128 -111 -54 -189 -68
-475 -81 -212 -9 -273 -17 -432 -55 -51 -12 -12 46 52 78 97 49 243 79 485
102 256 24 347 59 465 179 99 100 164 227 185 361 24 153 -49 301 -185 373
-44 24 -61 27 -145 27 -83 0 -101 -3 -145 -27 -65 -34 -130 -104 -160 -173
-26 -58 -51 -78 -93 -73 -35 4 -38 28 -17 126 16 72 21 81 75 134 102 100 188
131 344 122 58 -3 122 -13 152 -24z m-30 -215 c153 -90 129 -361 -49 -552 -98
-104 -178 -133 -450 -158 -152 -15 -272 -33 -331 -51 -15 -5 -11 6 19 57 56
98 150 295 180 380 l27 77 111 7 c62 4 118 12 125 17 6 6 12 21 12 34 0 34 38
131 64 160 55 65 206 79 292 29z m-3222 -1005 c61 -23 165 -162 181 -240 19
-97 25 -110 63 -129 62 -32 290 -101 417 -126 412 -82 832 -50 1224 93 97 35
126 63 135 127 11 80 23 102 69 120 65 26 251 71 395 96 l132 23 133 -23 c341
-58 639 -151 700 -219 29 -32 18 -63 -35 -98 -189 -127 -764 -232 -1568 -286
-251 -17 -1273 -17 -1520 0 -733 51 -1256 140 -1482 253 -63 32 -88 60 -88
101 0 97 376 208 974 288 252 33 238 32 270 20z m-995 -585 c201 -68 609 -134
1121 -180 237 -22 1137 -31 1580 -16 569 19 1167 96 1491 192 56 16 103 28
105 26 2 -2 -35 -24 -84 -50 -148 -78 -360 -154 -587 -211 -981 -245 -2557
-204 -3370 88 -146 53 -382 175 -339 176 6 0 43 -11 83 -25z"/>
<path d="M1951 4621 c-25 -25 -64 -150 -85 -270 -35 -209 -6 -494 66 -634 17
-35 22 -38 56 -35 33 3 37 6 40 34 2 17 -11 85 -28 150 -57 214 -53 414 11
623 16 51 29 97 29 102 0 15 -39 49 -55 49 -8 0 -24 -9 -34 -19z"/>
</g>
</svg>
