<?xml version="1.0" standalone="no"?>
<!DOCTYPE svg PUBLIC "-//W3C//DTD SVG 20010904//EN"
 "http://www.w3.org/TR/2001/REC-SVG-20010904/DTD/svg10.dtd">
<svg version="1.0" xmlns="http://www.w3.org/2000/svg"
 width="512.000000pt" height="512.000000pt" viewBox="0 0 512.000000 512.000000"
 preserveAspectRatio="xMidYMid meet">

<g transform="translate(0.000000,512.000000) scale(0.100000,-0.100000)"
fill="currentColor" stroke="currentColor">
<path d="M2805 4486 c-59 -27 -96 -67 -120 -131 -14 -36 -22 -45 -42 -45 -58
0 -184 -34 -258 -70 -150 -73 -252 -175 -325 -325 -35 -73 -70 -200 -70 -256
0 -12 -36 -86 -79 -163 -91 -162 -208 -395 -258 -511 -19 -44 -38 -84 -42 -88
-4 -4 -165 168 -357 382 l-348 391 -217 0 c-205 0 -217 -1 -234 -21 -16 -16
-17 -25 -9 -47 10 -24 689 -1251 698 -1260 9 -8 87 40 83 51 -2 7 -149 272
-326 590 -176 318 -321 580 -321 582 0 3 64 5 143 4 l142 0 535 -600 c522
-585 600 -682 600 -740 0 -19 -18 -19 -764 -19 -682 0 -766 -2 -780 -16 -12
-11 -16 -36 -16 -98 l0 -84 -89 -4 c-74 -3 -99 -9 -154 -36 -76 -38 -129 -92
-166 -171 -22 -47 -26 -70 -26 -141 0 -76 4 -93 33 -152 38 -77 92 -130 171
-167 53 -24 66 -26 232 -29 l175 -4 38 -76 c21 -42 67 -125 102 -183 l64 -107
0 -150 c0 -124 3 -153 16 -166 14 -14 196 -16 1859 -16 1663 0 1845 2 1859 16
14 13 16 50 16 247 0 128 -5 304 -10 392 -10 146 -45 469 -55 505 -4 11 17 22
77 43 372 129 597 510 524 889 -59 307 -272 536 -584 625 -42 12 -120 18 -306
22 l-250 6 -77 135 c-44 76 -78 147 -78 163 -2 65 -35 187 -71 262 -73 150
-175 252 -325 325 -74 36 -200 70 -258 70 -20 0 -28 9 -42 45 -24 64 -61 104
-120 131 -64 31 -126 31 -190 0z m148 -90 c31 -13 67 -53 67 -76 0 -6 -46 -10
-125 -10 l-126 0 16 30 c32 61 102 84 168 56z m349 -214 c37 -13 101 -45 142
-73 143 -96 229 -230 260 -406 l6 -33 -810 0 -809 0 5 33 c32 193 157 363 329
448 108 53 157 58 500 56 290 -3 314 -4 377 -25z m481 -702 c397 -687 625
-1432 677 -2215 5 -82 10 -174 10 -202 l0 -53 -90 0 -90 0 0 -50 0 -50 90 0
90 0 0 -100 0 -100 -277 1 c-264 0 -277 1 -253 17 110 74 220 220 265 353 26
77 29 99 33 260 4 159 2 177 -14 193 -16 16 -34 18 -193 14 -159 -4 -184 -7
-256 -32 -44 -15 -95 -36 -113 -47 -18 -10 -35 -19 -36 -19 -2 0 -6 25 -10 57
-9 78 -51 196 -94 268 -20 33 -85 111 -146 173 -86 88 -115 112 -136 112 -22
0 -51 -25 -143 -119 -100 -103 -121 -131 -161 -212 -74 -151 -93 -289 -60
-446 31 -152 88 -247 238 -400 105 -108 130 -121 168 -86 17 15 18 14 18 -35
l0 -52 -540 0 -540 0 0 100 0 100 315 0 315 0 0 50 0 50 -295 0 -295 0 40 65
c170 278 278 633 296 978 6 108 5 125 -10 140 -15 15 -44 17 -249 17 l-232 0
-13 52 c-21 92 -52 136 -228 334 -96 108 -174 202 -174 210 0 49 305 664 373
752 8 9 183 12 840 10 l831 -3 49 -85z m685 -246 c268 -54 482 -271 538 -544
49 -243 -49 -511 -245 -667 -59 -47 -195 -117 -247 -128 -29 -6 -32 -4 -38 26
-12 60 -9 64 50 83 30 10 90 41 132 70 271 184 342 545 159 814 -87 127 -217
216 -362 247 -44 9 -128 15 -227 15 l-158 0 -25 50 -25 50 185 0 c129 0 209
-5 263 -16z m-25 -199 c182 -47 315 -180 362 -362 55 -212 -55 -447 -257 -548
-39 -19 -78 -35 -88 -35 -13 0 -24 26 -50 128 -61 241 -166 539 -287 820 -8
18 246 16 320 -3z m-3443 -1045 l0 -120 -64 0 c-97 0 -96 2 -96 -210 0 -149 3
-181 16 -194 23 -24 365 -24 388 0 13 13 16 45 16 194 0 212 1 210 -96 210
l-64 0 0 120 0 120 700 0 700 0 0 -30 c0 -17 -5 -74 -11 -128 -32 -299 -129
-583 -289 -850 l-55 -92 -625 0 -625 0 -52 88 c-177 298 -271 590 -298 930
l-7 82 231 0 231 0 0 -120z m2332 -138 c129 -136 188 -267 188 -423 0 -61 -2
-67 -35 -99 -20 -19 -54 -63 -76 -97 -41 -63 -99 -208 -99 -250 0 -12 -4 -25
-10 -28 -7 -4 -10 122 -10 369 l0 376 -50 0 -50 0 0 -377 0 -377 -41 39 c-63
61 -133 173 -160 256 -19 59 -24 95 -24 179 0 128 24 215 86 310 39 61 174
210 190 210 3 0 45 -40 91 -88z m-2872 32 c0 -49 49 -270 83 -373 l33 -101
-131 0 c-159 0 -210 14 -270 75 -98 98 -98 252 0 350 53 53 109 73 208 74 77
1 77 1 77 -25z m700 -224 l0 -110 -110 0 -110 0 0 110 0 110 110 0 110 0 0
-110z m2980 -318 c0 -198 -52 -335 -175 -457 -114 -114 -261 -175 -424 -175
l-76 0 268 268 267 268 -35 34 -35 34 -266 -264 -266 -265 5 100 c13 243 156
443 376 526 81 30 123 37 249 38 l112 1 0 -108z m-2020 -532 l0 -100 -600 0
-600 0 0 100 0 100 600 0 600 0 0 -100z"/>
</g>
</svg>
